{"title":"The.Peanuts.Movie.2015.BRRip.720p.x264.AAC-PRiSTiNE [P2PDL]","uid":13685901,"size":588192315,"categoryP":"video","categoryS":"movies","magnet":"?xt=urn:btih:e9475b59c05aa0a105f85dda5f2a2f9f4678bfbe&amp;dn=The.Peanuts.Movie.2015.BRRip.720p.x264.AAC-PRiSTiNE+%5BP2PDL%5D&amp;tr=udp%3A%2F%2Ftracker.leechers-paradise.org%3A6969&amp;tr=udp%3A%2F%2Fzer0day.ch%3A1337&amp;tr=udp%3A%2F%2Fopen.demonii.com%3A1337&amp;tr=udp%3A%2F%2Ftracker.coppersurfer.tk%3A6969&amp;tr=udp%3A%2F%2Fexodus.desync.com%3A6969","seeders":0,"leechers":3,"uploader":"VYTOP2PDL","files":7,"time":1456549751,"description":"____    ____ ____    ____ .___________.  ______   \r\n     /   /      /   / |           | /  __    \r\n    /   /      /   /  `---|  |----`|  |  |  | \r\n        /     _    _/       |  |     |  |  |  | \r\n       /        |  |         |  |     |  `--'  | \r\n    __/         |__|         |__|      ______/  \r\n                                                  \r\nPresenting Small Encodes with quality for years!\r\n                                                                                                   \r\n                                                                                                   \r\n\r\n\r\nThe.Peanuts.Movie.2015.BRRip.720p.x264.AAC-PRiSTiNE\r\n\r\n\r\nGenre: Animation, Adventure, Comedy \nhttp://www.imdb.com/title/tt2452042/\r\n\r\n\r\nFormat                                   : MPEG-4\r\nFile size                                : 551 MiB\r\nDuration                                 : 1h 28mn\r\nOverall bit rate                         : 875 Kbps\r\n\r\nVideo\r\nFormat                                   : AVC\r\nBit rate                                 : 792 Kbps\r\nWidth                                    : 1 280 pixels\r\nHeight                                   : 688 pixels\r\nDisplay aspect ratio                     : 1.85:1\r\nFrame rate mode                          : Constant\r\nFrame rate                               : 23.976 fps\r\nBit depth                                : 8 bits\r\nStream size                              : 499 MiB (91%)\r\nWriting library                          : x264\r\n\r\nAudio\r\nFormat                                   : AAC\r\nBit rate mode                            : Variable\r\nBit rate                                 : 79.8 Kbps\r\nChannel(s)                               : 2 channels\r\nChannel positions                        : Front: L R\r\nSampling rate                            : 48.0 KHz \r\nStream size                              : 50.3 MiB (9%)\r\nLanguage                                 : English\r\n\r\nSubtitle                                 : Yes (English)\r\n\r\nScreen Shot: (Click to view)\r\n \nhttp://ititli.com/Xng \nhttp://ititli.com/Xnn \nhttp://ititli.com/Xnw \nhttp://ititli.com/Xn2 \nhttp://ititli.com/Xn6 \nhttp://ititli.com/Xn8 \nhttp://ititli.com/Xne \nhttp://ititli.com/Xnj \nhttp://ititli.com/Xnk\r\n\r\n----------------------------------------------------------------------------------------------------\r\n\r\n\r\nEncoder Notes: Looking For Early Access To Anything You Can Provide WEBDL, DVDScr, DVDR, BluRay,\r\nDirect Audio, Music Releases and Seedboxes. If You Got anything to offer please contact us.\r\n\r\nSupport us by donating BC - 1FgwdzPsd1y25Gea8wP1qni35uGCtmkRCD\r\n\r\nSend some love!\r\nFind us and join us!","torrent":{"xt":"urn:btih:e9475b59c05aa0a105f85dda5f2a2f9f4678bfbe","amp;dn":"The.Peanuts.Movie.2015.BRRip.720p.x264.AAC-PRiSTiNE+%5BP2PDL%5D","amp;tr":["udp%3A%2F%2Ftracker.leechers-paradise.org%3A6969","udp%3A%2F%2Fzer0day.ch%3A1337","udp%3A%2F%2Fopen.demonii.com%3A1337","udp%3A%2F%2Ftracker.coppersurfer.tk%3A6969","udp%3A%2F%2Fexodus.desync.com%3A6969"],"infoHash":"e9475b59c05aa0a105f85dda5f2a2f9f4678bfbe","infoHashBuffer":{"type":"Buffer","data":[233,71,91,89,192,90,160,161,5,248,93,218,95,42,47,159,70,120,191,190]},"announce":[],"urlList":[]}}